# xmcd
#
# Track frame offsets: 
#        150
#        16402
#        34482
#        50067
#        66100
#        79885
#        100125
#        117605
#        136815
#        151005
#
# Disc length: 2226 seconds
#
# Revision: 2
# Processed by: cddbd v1.5PL3 Copyright (c) Steve Scherf et al.
# Submitted via: ExactAudioCopy v0.95a3
#
DISCID=8408b00a
DTITLE=Lee Roy Parnell - Love Without Mercy
DYEAR=1992
DGENRE=Country
TTITLE0=What Kind Of Fool Do You Think I Am
TTITLE1=Back In My Arms Again
TTITLE2=The Rock
TTITLE3=Ain't No Short Way Home
TTITLE4=Love Without Mercy
TTITLE5=Road Scholar
TTITLE6=Night After Night
TTITLE7=Done Deal
TTITLE8=Tender Moment
TTITLE9=Roller Coaster
EXTD=
EXTT0=
EXTT1=
EXTT2=
EXTT3=
EXTT4=
EXTT5=
EXTT6=
EXTT7=
EXTT8=
EXTT9=
PLAYORDER=
